<svg width="82" height="61" viewBox="0 0 82 61" fill="none" xmlns="http://www.w3.org/2000/svg">
<path d="M23.6124 60.0804L16.7124 55.3904V23.2504L23.6124 18.5604V60.0804Z" fill="#FF8C00"/>
<path d="M81.2423 15.4603L45.6823 0.600281H45.6723H45.6623L10.1023 15.4603L10.8523 17.2603L45.6723 2.71028L80.4923 17.2603L81.2423 15.4603Z" fill="#FF8C00"/>
<path d="M36.3123 11.2304L0.902344 26.0204L10.3923 18.3504L44.5823 4.08038L36.3123 11.2304Z" fill="#008FD1"/>
<path d="M9.80234 17.7003L9.20235 15.9903L0.902344 24.0303V25.4303L9.80234 17.7003Z" fill="#FF8C00"/>
<path d="M46.1423 3.83038L37.1624 11.7704L50.7823 17.6304H67.1723V24.6704L70.3123 26.0204L79.6024 17.8804L46.1423 3.83038Z" fill="#008FD1"/>
<path d="M66.2425 18.5604H24.7825V60.0704H66.2425V18.5604Z" fill="#FF8C00"/>
<path d="M43.3024 44.8503H31.9424V46.1203H43.3024V44.8503Z" fill="#008FD1"/>
<path d="M33.0624 38.0703H35.5624V43.6703H33.0624V38.0703ZM34.3124 32.5103L31.7124 37.0403H36.9424L34.3124 32.5103Z" fill="#008FD1"/>
<path d="M39.7123 38.0703H42.2123V43.6703H39.7123V38.0703ZM40.9623 32.5303L38.3423 37.0403H43.5823L40.9623 32.5303Z" fill="#008FD1"/>
<path d="M59.3125 36.9103C58.7825 35.615 57.879 34.5067 56.7169 33.7266C55.5549 32.9465 54.187 32.53 52.7875 32.53C51.3879 32.53 50.02 32.9465 48.858 33.7266C47.696 34.5067 46.7924 35.615 46.2625 36.9103H59.3125Z" fill="#008FD1"/>
<path d="M54.4224 46.1104C54.1445 46.1308 53.8654 46.0945 53.6019 46.004C53.3384 45.9134 53.096 45.7702 52.8894 45.5833C52.6828 45.3963 52.5163 45.1694 52.3999 44.9162C52.2836 44.663 52.2198 44.3889 52.2124 44.1104C52.2124 43.0004 52.2124 38.0604 52.2124 38.0604H53.3724C53.3724 38.0604 53.3724 42.9804 53.3724 44.0604C53.3724 44.9204 54.3724 44.9304 54.3724 44.9304C54.6103 44.9278 54.8377 44.8321 55.0059 44.6639C55.1741 44.4957 55.2698 44.2683 55.2724 44.0304H56.4324C56.4352 44.5709 56.2266 45.091 55.851 45.4797C55.4754 45.8683 54.9627 46.0947 54.4224 46.1104Z" fill="#008FD1"/>
</svg>
