<svg width="69" height="66" viewBox="0 0 69 66" fill="none" xmlns="http://www.w3.org/2000/svg">
<path d="M33.4424 43.9804L14.7124 4.56036L13.5125 5.13036L5.51245 8.91035L6.61244 11.2304L12.5325 8.41035L30.1324 45.4104C31.156 44.7669 32.2724 44.2846 33.4424 43.9804Z" fill="#008FD1"/>
<path d="M48.0525 51.2804L63.3025 44.0404L61.7725 40.8304L46.2825 48.1904C47.0174 49.1303 47.6134 50.1709 48.0525 51.2804Z" fill="#008FD1"/>
<path d="M36.7123 43.5103C39.6064 43.5085 42.4067 44.5365 44.6123 46.4103L68.2123 35.2503L55.9523 9.34027L26.3723 23.3403L35.9323 43.5603C36.1623 43.5103 36.4223 43.5103 36.7123 43.5103Z" fill="#FF8C00"/>
<path d="M38.3907 0.779377L20.0303 9.46222L25.5965 21.2324L43.9569 12.5496L38.3907 0.779377Z" fill="#FF8C00"/>
<path d="M9.16156 6.2428L0.554199 10.3336L2.59314 14.6237L11.2005 10.5329L9.16156 6.2428Z" fill="#FF8C00"/>
<path d="M18.3542 19.1702L16.782 19.9157L18.5815 23.7106L20.1537 22.9651L18.3542 19.1702Z" fill="#FF8C00"/>
<path d="M26.2534 35.8256L24.6821 36.5731L26.4863 40.3658L28.0576 39.6184L26.2534 35.8256Z" fill="#FF8C00"/>
<path d="M36.7124 46.2303C34.8275 46.2303 32.985 46.7892 31.4178 47.8364C29.8506 48.8835 28.6291 50.3719 27.9078 52.1133C27.1865 53.8547 26.9978 55.7709 27.3655 57.6195C27.7332 59.4681 28.6409 61.1662 29.9736 62.499C31.3064 63.8318 33.0045 64.7395 34.8532 65.1072C36.7018 65.4749 38.618 65.2862 40.3593 64.5648C42.1007 63.8435 43.5891 62.6221 44.6363 61.0549C45.6834 59.4877 46.2424 57.6451 46.2424 55.7603C46.2424 53.2328 45.2383 50.8088 43.4511 49.0215C41.6639 47.2343 39.2399 46.2303 36.7124 46.2303ZM36.7124 62.8103C35.318 62.8103 33.955 62.3968 32.7956 61.6221C31.6362 60.8475 30.7326 59.7464 30.199 58.4582C29.6654 57.17 29.5258 55.7525 29.7978 54.3849C30.0699 53.0173 30.7413 51.7611 31.7273 50.7752C32.7132 49.7892 33.9694 49.1178 35.337 48.8457C36.7046 48.5737 38.1221 48.7134 39.4103 49.2469C40.6985 49.7805 41.7996 50.6841 42.5742 51.8435C43.3489 53.0029 43.7624 54.3659 43.7624 55.7603C43.7624 57.6301 43.0196 59.4233 41.6975 60.7454C40.3753 62.0675 38.5821 62.8103 36.7124 62.8103Z" fill="#008FD1"/>
<path d="M41.2623 55.7603C41.2623 56.6662 40.9937 57.5517 40.4904 58.3049C39.9872 59.058 39.2719 59.6451 38.435 59.9917C37.5981 60.3383 36.6772 60.4291 35.7888 60.2523C34.9004 60.0756 34.0843 59.6394 33.4437 58.9989C32.8032 58.3584 32.367 57.5423 32.1903 56.6539C32.0136 55.7654 32.1043 54.8445 32.4509 54.0077C32.7976 53.1708 33.3846 52.4555 34.1378 51.9522C34.891 51.449 35.7765 51.1804 36.6823 51.1804C37.897 51.1804 39.0619 51.6629 39.9208 52.5218C40.7798 53.3807 41.2623 54.5457 41.2623 55.7603Z" fill="#008FD1"/>
<path d="M47.6965 35.0683L37.4448 39.9625L37.9877 41.0995L48.2393 36.2054L47.6965 35.0683Z" fill="#008FD1"/>
<path d="M35.5523 33.3504L37.8123 32.2704L40.2223 37.3304L37.9623 38.4104L35.5523 33.3504ZM34.2923 27.8104L33.8723 33.0104L38.5923 30.7504L34.2923 27.8104Z" fill="#008FD1"/>
<path d="M41.5123 30.5103L43.7723 29.4303L46.1923 34.4903L43.9323 35.5703L41.5123 30.5103ZM40.2523 24.9703L39.8423 30.1703L44.5623 27.9203L40.2523 24.9703Z" fill="#008FD1"/>
<path d="M58.7124 20.9903C57.6763 20.0488 56.3834 19.437 54.9983 19.2329C53.6133 19.0289 52.1988 19.2419 50.9353 19.8447C49.6717 20.4475 48.6162 21.4129 47.9033 22.6178C47.1904 23.8227 46.8524 25.2126 46.9324 26.6103L58.7124 20.9903Z" fill="#008FD1"/>
<path d="M58.2925 31.4004C58.0485 31.5387 57.779 31.626 57.5002 31.657C57.2215 31.688 56.9394 31.662 56.671 31.5807C56.4026 31.4993 56.1535 31.3643 55.9389 31.1837C55.7243 31.0032 55.5486 30.7809 55.4225 30.5304L52.8125 25.0804L53.8625 24.5804L56.4625 30.0304C56.8425 30.8004 57.7525 30.3804 57.7925 30.3604C58.006 30.2528 58.1692 30.0663 58.2476 29.8405C58.326 29.6146 58.3134 29.3671 58.2125 29.1504L59.2625 28.6604C59.4959 29.1525 59.5249 29.7171 59.3431 30.2306C59.1614 30.7441 58.7836 31.1647 58.2925 31.4004Z" fill="#008FD1"/>
</svg>
