<svg width="51" height="72" viewBox="0 0 51 72" fill="none" xmlns="http://www.w3.org/2000/svg">
<path d="M25.7125 71.7703C20.7805 71.7762 15.9576 70.3191 11.8539 67.5834C7.75026 64.8477 4.55025 60.9562 2.65876 56.4014C0.767264 51.8466 0.269284 46.833 1.22782 41.9951C2.18636 37.1572 4.55835 32.7123 8.04367 29.2227C11.529 25.7332 15.971 23.3559 20.8078 22.3915C25.6446 21.4271 30.6587 21.9191 35.2158 23.8051C39.7729 25.6911 43.6682 28.8864 46.4089 32.9868C49.1496 37.0872 50.6124 41.9083 50.6125 46.8403C50.594 53.4413 47.9657 59.7671 43.3009 64.4375C38.6361 69.1079 32.3134 71.7439 25.7125 71.7703ZM25.7125 24.7703C21.3395 24.7703 17.0648 26.067 13.4288 28.4965C9.79283 30.926 6.95893 34.3791 5.28548 38.4192C3.61203 42.4592 3.17417 46.9048 4.02729 51.1937C4.88041 55.4826 6.98618 59.4223 10.0783 62.5144C13.1705 65.6065 17.1101 67.7123 21.399 68.5655C25.6879 69.4186 30.1335 68.9807 34.1736 67.3072C38.2137 65.6338 41.6668 62.7999 44.0962 59.1639C46.5257 55.528 47.8225 51.2532 47.8225 46.8803C47.8251 41.0118 45.4978 35.3824 41.3519 31.2291C37.2061 27.0757 31.5809 24.7382 25.7125 24.7303V24.7703Z" fill="#008FD1"/>
<path d="M25.7124 53.0403C24.4858 53.0422 23.2861 52.6803 22.2652 52.0002C21.2443 51.3202 20.4481 50.3525 19.9773 49.2198C19.5065 48.0871 19.3823 46.8402 19.6204 45.6368C19.8585 44.4335 20.4482 43.3278 21.3148 42.4597C22.1815 41.5917 23.2862 41.0002 24.4892 40.7601C25.6922 40.5201 26.9393 40.6423 28.0728 41.1112C29.2063 41.5802 30.1752 42.3749 30.8569 43.3947C31.5386 44.4145 31.9024 45.6136 31.9024 46.8402C31.8998 48.482 31.2471 50.056 30.0871 51.2179C28.9271 52.3797 27.3542 53.035 25.7124 53.0403ZM25.7124 42.5103C24.86 42.5103 24.0267 42.763 23.3179 43.2366C22.6092 43.7102 22.0567 44.3833 21.7305 45.1709C21.4043 45.9584 21.319 46.825 21.4853 47.6611C21.6516 48.4972 22.0621 49.2651 22.6648 49.8679C23.2676 50.4707 24.0355 50.8811 24.8716 51.0474C25.7077 51.2137 26.5743 51.1284 27.3618 50.8022C28.1494 50.476 28.8225 49.9235 29.2961 49.2148C29.7697 48.506 30.0224 47.6727 30.0224 46.8203C30.0224 46.2543 29.911 45.6938 29.6944 45.1709C29.4778 44.648 29.1603 44.1728 28.7601 43.7726C28.3599 43.3724 27.8847 43.0549 27.3618 42.8383C26.8389 42.6217 26.2784 42.5103 25.7124 42.5103Z" fill="#008FD1"/>
<path d="M25.7124 49.0902C25.2674 49.0902 24.8324 48.9582 24.4624 48.711C24.0924 48.4638 23.804 48.1124 23.6337 47.7013C23.4634 47.2901 23.4188 46.8377 23.5056 46.4013C23.5925 45.9648 23.8067 45.5639 24.1214 45.2492C24.4361 44.9346 24.837 44.7203 25.2735 44.6334C25.7099 44.5466 26.1623 44.5912 26.5734 44.7615C26.9846 44.9318 27.336 45.2202 27.5832 45.5902C27.8304 45.9602 27.9624 46.3952 27.9624 46.8402C27.9624 47.4369 27.7254 48.0092 27.3034 48.4312C26.8814 48.8532 26.3091 49.0902 25.7124 49.0902Z" fill="#008FD1"/>
<path d="M25.7125 19.9202C23.752 19.9222 21.8351 19.3427 20.2041 18.2549C18.5731 17.1672 17.3013 15.6202 16.5497 13.8095C15.7981 11.9989 15.6004 10.006 15.9817 8.083C16.3629 6.15999 17.306 4.39328 18.6915 3.00634C20.0771 1.6194 21.8428 0.674563 23.7655 0.291372C25.6881 -0.0918186 27.6812 0.103858 29.4926 0.853628C31.304 1.6034 32.8523 2.87356 33.9417 4.50347C35.031 6.13338 35.6125 8.04978 35.6125 10.0102C35.6072 12.6352 34.5628 15.1512 32.7076 17.0083C30.8524 18.8653 28.3374 19.9123 25.7125 19.9202ZM25.7125 1.99022C24.1302 1.99022 22.5835 2.45941 21.2679 3.33846C19.9523 4.21751 18.9269 5.46692 18.3214 6.92873C17.7159 8.39054 17.5575 9.99908 17.8662 11.5509C18.1749 13.1028 18.9368 14.5282 20.0556 15.6471C21.1745 16.7659 22.5999 17.5278 24.1518 17.8365C25.7036 18.1452 27.3121 17.9867 28.774 17.3812C30.2358 16.7757 31.4852 15.7504 32.3642 14.4348C33.2433 13.1192 33.7125 11.5725 33.7125 9.99022C33.7125 7.86849 32.8696 5.83366 31.3693 4.33336C29.869 2.83307 27.8342 1.99022 25.7125 1.99022Z" fill="#008FD1"/>
<path d="M27.6924 15.4103H23.6624V23.2003H27.6924V15.4103Z" fill="#FF8C00"/>
<path d="M29.6424 12.4702H21.7124V15.8702H29.6424V12.4702Z" fill="#FF8C00"/>
<path d="M30.6925 21.0203H20.5325V23.6302H30.6925V21.0203Z" fill="#008FD1"/>
<path d="M9.70539 22.4078L5.09448 26.2782L7.35114 28.9666L11.9621 25.0962L9.70539 22.4078Z" fill="#FF8C00"/>
<path d="M41.669 22.3976L39.4124 25.0861L44.0233 28.9564L46.2799 26.268L41.669 22.3976Z" fill="#FF8C00"/>
<path d="M24.5024 26.3502H27.5024V30.8302H24.5024V26.3502ZM24.5024 67.2902H27.5024V62.8002H24.5024V67.2902ZM5.50244 48.2902H9.98244V45.3402H5.51244L5.50244 48.2902ZM41.9524 45.3402V48.2902H46.4324V45.3402H41.9524Z" fill="#008FD1"/>
<path d="M22.01 28.3724L20.3513 28.817L21.5161 33.1626L23.1748 32.718L22.01 28.3724Z" fill="#FF8C00"/>
<path d="M30.9135 62.0447L29.2615 62.4861L30.418 66.8142L32.07 66.3728L30.9135 62.0447Z" fill="#FF8C00"/>
<path d="M16.4589 28.6789L14.9775 29.5331L17.2155 33.4141L18.6969 32.5598L16.4589 28.6789Z" fill="#FF8C00"/>
<path d="M34.7147 60.2224L33.2336 61.0771L35.473 64.9573L36.954 64.1026L34.7147 60.2224Z" fill="#FF8C00"/>
<path d="M12.1229 31.7269L10.9131 32.9354L14.0793 36.1049L15.2891 34.8964L12.1229 31.7269Z" fill="#FF8C00"/>
<path d="M37.902 57.4965L36.6924 58.7052L39.8591 61.8742L41.0687 60.6654L37.902 57.4965Z" fill="#FF8C00"/>
<path d="M8.69385 35.8302L7.83911 37.3113L11.7193 39.5506L12.574 38.0696L8.69385 35.8302Z" fill="#FF8C00"/>
<path d="M40.2546 54.0543L39.3999 55.5354L43.2801 57.7747L44.1348 56.2937L40.2546 54.0543Z" fill="#FF8C00"/>
<path d="M8.02712 41.2568L7.58252 42.9155L11.9281 44.0803L12.3727 42.4216L8.02712 41.2568Z" fill="#FF8C00"/>
<path d="M41.644 50.1564L41.2012 51.8081L45.5283 52.9684L45.9712 51.3167L41.644 50.1564Z" fill="#FF8C00"/>
<path d="M10.3338 50.1219L6.0083 51.2882L6.45347 52.9392L10.779 51.7729L10.3338 50.1219Z" fill="#FF8C00"/>
<path d="M45.5576 40.683L41.2305 41.8433L41.6733 43.4949L46.0005 42.3347L45.5576 40.683Z" fill="#FF8C00"/>
<path d="M11.685 54.0865L7.80835 56.3319L8.66541 57.8116L12.5421 55.5662L11.685 54.0865Z" fill="#FF8C00"/>
<path d="M43.2542 35.8614L39.374 38.1007L40.2288 39.5818L44.1089 37.3424L43.2542 35.8614Z" fill="#FF8C00"/>
<path d="M14.0712 57.5119L10.9072 60.6836L12.1178 61.8913L15.2818 58.7196L14.0712 57.5119Z" fill="#FF8C00"/>
<path d="M39.8502 31.738L36.6824 34.9059L37.8915 36.115L41.0594 32.9472L39.8502 31.738Z" fill="#FF8C00"/>
<path d="M18.7561 60.3109L16.5161 64.2085L18.0038 65.0635L20.2438 61.1659L18.7561 60.3109Z" fill="#FF8C00"/>
<path d="M35.4723 28.657L33.2344 32.538L34.7157 33.3922L36.9537 29.5112L35.4723 28.657Z" fill="#FF8C00"/>
<path d="M21.0092 62.0643L19.8564 66.3934L21.5089 66.8334L22.6616 62.5043L21.0092 62.0643Z" fill="#FF8C00"/>
<path d="M30.449 26.8132L29.2917 31.1411L30.9437 31.5828L32.1009 27.2549L30.449 26.8132Z" fill="#FF8C00"/>
<path d="M34.1186 30.174L27.304 42.0012L29.5048 43.2693L36.3195 31.4421L34.1186 30.174Z" fill="#008FD1"/>
</svg>
