<svg width="79" height="42" viewBox="0 0 79 42" fill="none" xmlns="http://www.w3.org/2000/svg">
<path d="M24.7123 29.5103C23.5064 29.5104 22.3278 29.8691 21.3262 30.5408C20.3247 31.2125 19.5456 32.1668 19.0879 33.2825C18.6301 34.3981 18.5145 35.6247 18.7556 36.8062C18.9968 37.9877 19.5839 39.0709 20.4422 39.9179C21.3005 40.7649 22.3913 41.3376 23.5759 41.5631C24.7606 41.7886 25.9855 41.6567 27.095 41.1842C28.2045 40.7117 29.1484 39.92 29.8067 38.9097C30.4651 37.8994 30.8081 36.7161 30.7923 35.5103C30.7712 33.9117 30.1214 32.3857 28.9835 31.2627C27.8455 30.1397 26.311 29.5102 24.7123 29.5103ZM24.7123 39.8403C23.8723 39.8422 23.0506 39.5957 22.3503 39.1318C21.65 38.6679 21.1025 38.0074 20.7766 37.2332C20.4507 36.4591 20.3609 35.6058 20.5186 34.7808C20.6762 33.9558 21.0743 33.1957 21.6626 32.5963C22.251 31.9968 23.0035 31.5847 23.8254 31.4117C24.6474 31.2387 25.5022 31.3125 26.2823 31.6239C27.0624 31.9354 27.733 32.4704 28.2098 33.1619C28.6867 33.8534 28.9485 34.6705 28.9623 35.5103C28.9689 36.0726 28.8639 36.6307 28.6532 37.1521C28.4426 37.6735 28.1306 38.1479 27.7353 38.5479C27.34 38.9479 26.8692 39.2654 26.3503 39.4821C25.8314 39.6988 25.2746 39.8104 24.7123 39.8103V39.8403Z" fill="#008FD1"/>
<path d="M65.9525 29.5103C64.7466 29.5104 63.568 29.8691 62.5665 30.5408C61.565 31.2125 60.7858 32.1668 60.3281 33.2825C59.8703 34.3981 59.7547 35.6247 59.9959 36.8062C60.237 37.9877 60.8241 39.0709 61.6824 39.9179C62.5407 40.7649 63.6315 41.3376 64.8162 41.5631C66.0008 41.7886 67.2257 41.6567 68.3352 41.1842C69.4447 40.7118 70.3886 39.92 71.047 38.9097C71.7053 37.8994 72.0484 36.7161 72.0325 35.5103C72.0141 33.9109 71.3651 32.3834 70.2266 31.2598C69.088 30.1363 67.552 29.5076 65.9525 29.5103ZM65.9525 39.8403C65.113 39.8402 64.2922 39.592 63.5932 39.127C62.8943 38.6619 62.3483 38.0007 62.0239 37.2263C61.6995 36.452 61.6112 35.599 61.77 34.7747C61.9288 33.9503 62.3276 33.1912 62.9164 32.5927C63.5052 31.9942 64.2576 31.5831 65.0793 31.4109C65.901 31.2387 66.7553 31.3131 67.5348 31.6249C68.3144 31.9366 68.9844 32.4717 69.4608 33.163C69.9372 33.8543 70.1987 34.6709 70.2125 35.5103C70.2191 36.0735 70.1138 36.6323 69.9025 37.1544C69.6913 37.6765 69.3784 38.1514 68.982 38.5515C68.5856 38.9516 68.1137 39.2689 67.5936 39.485C67.0735 39.7011 66.5157 39.8117 65.9525 39.8103V39.8403Z" fill="#008FD1"/>
<path d="M10.5223 29.5103C9.31601 29.5084 8.1364 29.8654 7.13357 30.5359C6.13074 31.2064 5.35002 32.16 4.89074 33.2755C4.43147 34.391 4.31441 35.6179 4.55444 36.8001C4.79446 37.9823 5.38074 39.0663 6.23867 39.9144C7.0966 40.7624 8.1874 41.3361 9.37231 41.5624C10.5572 41.7887 11.7827 41.6574 12.8927 41.1852C14.0028 40.713 14.9473 39.9213 15.6061 38.9108C16.2649 37.9002 16.6082 36.7165 16.5923 35.5103C16.5713 33.9134 15.9229 32.3889 14.7871 31.2662C13.6513 30.1435 12.1194 29.5128 10.5223 29.5103ZM10.5223 39.8403C9.68237 39.8422 8.8606 39.5957 8.16033 39.1318C7.46007 38.6679 6.91258 38.0074 6.58666 37.2332C6.26075 36.4591 6.17096 35.6058 6.32861 34.7808C6.48626 33.9558 6.8843 33.1957 7.47268 32.5963C8.06107 31.9968 8.81353 31.5847 9.63549 31.4117C10.4575 31.2387 11.3122 31.3125 12.0923 31.6239C12.8724 31.9354 13.543 32.4704 14.0199 33.1619C14.4967 33.8534 14.7585 34.6705 14.7723 35.5103C14.7776 36.0723 14.6717 36.6297 14.4606 37.1505C14.2495 37.6713 13.9374 38.1453 13.5424 38.5449C13.1473 38.9446 12.6771 39.2622 12.1588 39.4794C11.6405 39.6966 11.0843 39.809 10.5223 39.8103V39.8403Z" fill="#008FD1"/>
<path d="M46.8524 0.0703735H3.38237C2.60875 0.0730094 1.86755 0.381496 1.32051 0.928532C0.773475 1.47557 0.464993 2.21675 0.462357 2.99037V32.6304C0.426352 33.0179 0.485917 33.4083 0.635849 33.7675C0.785782 34.1266 1.02149 34.4435 1.32234 34.6904C2.67234 35.5504 2.99236 33.9504 3.21236 33.2404C3.61846 31.9523 4.35788 30.7946 5.35567 29.8844C6.35346 28.9743 7.57415 28.3441 8.894 28.0578C10.2138 27.7715 11.5859 27.8392 12.8711 28.2541C14.1564 28.669 15.3091 29.4164 16.2124 30.4204C16.5883 30.7479 17.0648 30.9373 17.563 30.9573C18.0612 30.9773 18.5513 30.8267 18.9523 30.5304C19.6656 29.7013 20.5495 29.0362 21.5437 28.5806C22.5378 28.1249 23.6187 27.8895 24.7124 27.8904C26.3543 27.9039 27.9494 28.4391 29.267 29.4188C30.5847 30.3985 31.5566 31.7719 32.0423 33.3404C32.2092 33.8973 32.5292 34.3961 32.966 34.7798C33.4027 35.1635 33.9386 35.4167 34.5123 35.5104H46.8524C47.626 35.5077 48.3672 35.1992 48.9142 34.6522C49.4612 34.1052 49.7697 33.364 49.7724 32.5904V2.99037C49.7671 2.21756 49.4578 1.47789 48.9113 0.931412C48.3649 0.384937 47.6252 0.0756131 46.8524 0.0703735Z" fill="#008FD1"/>
<path d="M77.5724 30.2304C77.3424 23.0704 74.1524 23.8504 72.2024 19.0104C68.1524 8.94039 64.2524 7.59039 58.8124 7.59039H54.0824C52.6624 7.59039 51.9424 8.97039 51.9424 10.5904V32.6904C51.9489 33.0673 52.0296 33.4392 52.1799 33.785C52.3301 34.1307 52.547 34.4434 52.8182 34.7053C53.0894 34.9671 53.4095 35.173 53.7602 35.3112C54.1109 35.4493 54.4855 35.517 54.8624 35.5104C55.4453 35.4795 56.0294 35.4795 56.6124 35.5104C57.7024 35.5104 58.3724 34.3404 58.5024 33.8004C58.8818 32.1687 59.7864 30.7066 61.0772 29.6388C62.368 28.5709 63.9737 27.9563 65.6476 27.8893C67.3215 27.8223 68.9711 28.3066 70.3431 29.2679C71.7152 30.2292 72.7337 31.6142 73.2424 33.2104C73.7024 34.5704 74.6624 35.0004 75.1524 34.9304C75.516 34.8686 75.8602 34.7225 76.1571 34.5036C76.4541 34.2848 76.6956 33.9994 76.8624 33.6704C77.288 33.5789 77.6678 33.3403 77.9349 32.9964C78.2019 32.6525 78.3391 32.2255 78.3224 31.7904C78.3222 31.4908 78.2547 31.1951 78.1249 30.925C77.9951 30.655 77.8062 30.4176 77.5724 30.2304ZM66.7124 20.1504H57.4424C56.6688 20.1478 55.9276 19.8393 55.3805 19.2922C54.8335 18.7452 54.525 18.004 54.5224 17.2304V13.2304C54.4836 12.8676 54.5204 12.5006 54.6305 12.1527C54.7407 11.8049 54.9217 11.4836 55.1623 11.2092C55.4028 10.9348 55.6977 10.7133 56.0281 10.5586C56.3586 10.4039 56.7176 10.3194 57.0824 10.3104H58.0024C59.4814 10.2895 60.9597 10.3898 62.4224 10.6104C63.7424 10.8004 64.9824 11.6104 67.0524 14.5404C67.9694 15.7025 68.5752 17.0792 68.8124 18.5404C68.9124 19.5104 68.2724 20.1504 66.7124 20.1504Z" fill="#FF8C00"/>
</svg>
