<svg width="44" height="66" viewBox="0 0 44 66" fill="none" xmlns="http://www.w3.org/2000/svg">
<path d="M32.7624 22.5103C36.3924 22.1303 37.8324 23.5103 38.0524 26.6103L43.2724 24.8303L37.9124 10.0002L21.2324 15.6202C22.2324 18.6202 23.0824 21.0303 24.0824 23.8003C25.2124 23.5903 29.7124 22.8103 32.7624 22.5103Z" fill="#FF8C00"/>
<path d="M37.0224 26.0403C36.8523 25.1275 36.3275 24.3193 35.5628 23.7927C34.7981 23.266 33.8559 23.0638 32.9424 23.2303L24.6224 24.7603L19.9424 18.5103C19.6853 17.422 19.0707 16.4513 18.1969 15.7534C17.3232 15.0554 16.2407 14.6706 15.1224 14.6603C13.7964 14.6603 12.5246 15.1871 11.5869 16.1248C10.6492 17.0624 10.1224 18.3342 10.1224 19.6603L9.99243 37.3303C9.99243 39.9903 12.0424 41.4503 14.6624 43.7703L22.0824 50.4203L23.7124 62.1803C23.8326 63.0126 24.2483 63.7738 24.8837 64.3247C25.5191 64.8756 26.3315 65.1793 27.1724 65.1803H27.6624C28.1188 65.12 28.5586 64.9701 28.9568 64.7392C29.3549 64.5082 29.7035 64.2008 29.9823 63.8346C30.2611 63.4684 30.4648 63.0506 30.5815 62.6053C30.6982 62.1601 30.7258 61.6962 30.6624 61.2403L28.8724 48.2403C28.7548 47.4183 28.3511 46.6641 27.7324 46.1103L19.9924 39.1703C19.9979 39.077 19.9979 38.9835 19.9924 38.8903V32.4803C19.7824 32.1403 17.1424 27.7503 15.5824 24.4803L20.3224 30.7803C20.6484 31.215 21.0712 31.5678 21.5572 31.8108C22.0432 32.0538 22.5791 32.1803 23.1224 32.1803C23.3339 32.1802 23.5448 32.16 23.7524 32.1203L34.2024 30.2003C34.6634 30.1178 35.1033 29.9438 35.496 29.6887C35.8888 29.4335 36.2265 29.1024 36.4893 28.7147C36.7521 28.3271 36.9347 27.8907 37.0262 27.4314C37.1178 26.9721 37.1165 26.4991 37.0224 26.0403Z" fill="#008FD1"/>
<path d="M9.63237 41.4502L1.18236 60.6202C0.996266 61.0403 0.894962 61.493 0.88425 61.9523C0.873537 62.4117 0.953628 62.8686 1.11994 63.2969C1.28625 63.7253 1.53549 64.1165 1.85338 64.4483C2.17127 64.78 2.55154 65.0458 2.97237 65.2302C3.41533 65.4304 3.89627 65.5327 4.38237 65.5302C5.06123 65.5308 5.72553 65.3334 6.2939 64.9622C6.86228 64.591 7.31003 64.062 7.58235 63.4402L15.1124 46.3802C13.1208 44.9299 11.2844 43.2778 9.63237 41.4502Z" fill="#008FD1"/>
<path d="M14.8424 14.1703H15.1524C16.2328 14.1713 17.2976 13.9129 18.2574 13.4169C19.2172 12.9209 20.0439 12.2017 20.6681 11.3199C21.2922 10.438 21.6956 9.41922 21.8442 8.34912C21.9929 7.27902 21.8825 6.18888 21.5224 5.17029L8.7124 9.51028C9.01014 10.419 9.49756 11.2541 10.1424 11.9603C10.7386 12.6238 11.4616 13.1612 12.2688 13.5408C13.0761 13.9203 13.9511 14.1344 14.8424 14.1703Z" fill="#008FD1"/>
<path d="M24.5723 3.25022L8.37234 8.73023C8.37234 8.73023 6.96232 4.18024 10.0723 2.15024C12.5923 0.500244 15.1523 -0.0397849 17.4123 0.620215C18.7299 1.07299 19.8824 1.90867 20.7223 3.02024C22.0745 2.72672 23.4439 2.51964 24.8223 2.40024C25.5723 2.81024 24.8523 3.09022 24.5723 3.25022Z" fill="#FF8C00"/>
</svg>
