<svg width="62" height="53" viewBox="0 0 62 53" fill="none" xmlns="http://www.w3.org/2000/svg">
<path d="M8.05241 43.0103L0.982422 38.2103V5.30029L8.05241 0.500305V43.0103Z" fill="#FF8C00"/>
<path d="M43.5425 8.63031L25.3325 10.0303C25.3325 10.0303 25.7225 21.1103 26.0425 28.8003C26.5125 40.4103 29.6625 48.8003 42.5425 52.1003C43.167 52.175 43.7981 52.175 44.4225 52.1003C57.4225 48.8503 60.5725 40.4203 61.0525 28.7703C61.3725 21.0803 61.7525 10.0003 61.7525 10.0003L43.5425 8.63031ZM59.3625 28.7303C58.9225 39.5803 56.1425 47.4403 44.0725 50.4803H43.7125C43.4529 50.4999 43.1922 50.4999 42.9325 50.4803C30.9325 47.4803 28.1925 39.6003 27.7525 28.7603C27.5025 22.8903 27.2225 14.9703 27.1025 11.6103L43.5825 10.3403L60.0525 11.6103C59.8925 14.9403 59.6125 22.8603 59.3625 28.7303Z" fill="#008FD1"/>
<path d="M43.2925 12.0203L28.8025 13.1303C28.9425 17.0003 29.1825 23.6003 29.3925 28.6603C29.8125 39.0003 32.2725 45.9803 43.1825 48.7903H43.2925V12.0203Z" fill="#008FD1"/>
<path d="M24.3524 28.8703C24.0324 21.2603 23.6524 10.2003 23.6424 10.0903C23.6282 9.65519 23.7826 9.23138 24.0732 8.90723C24.3638 8.58307 24.7683 8.38357 25.2024 8.35031L43.3724 6.95032H43.6724L52.2024 7.61032V0.510315H9.7124V43.0103H27.3124C25.2024 38.7903 24.5524 33.8603 24.3524 28.8703Z" fill="#FF8C00"/>
</svg>
